<svg xmlns="http://www.w3.org/2000/svg" viewBox="0 0 34 34">
  <defs>
    <style>
      .cls-1 {
        fill: #fff;
      }
    </style>
  </defs>
  <path id="ic_extension_24px" class="cls-1" d="M31.952,17.19H29.524V10.714a3.248,3.248,0,0,0-3.238-3.238H19.81V5.048a4.048,4.048,0,1,0-8.1,0V7.476H5.238a3.234,3.234,0,0,0-3.222,3.238v6.152H4.429a4.371,4.371,0,0,1,0,8.743H2v6.152A3.248,3.248,0,0,0,5.238,35H11.39V32.571a4.371,4.371,0,0,1,8.743,0V35h6.152a3.248,3.248,0,0,0,3.238-3.238V25.286h2.429a4.048,4.048,0,0,0,0-8.1Z" transform="translate(-2 -1)"/>
</svg>
